<mxfile host="app.diagrams.net" modified="2021-11-17T08:51:37.443Z" agent="5.0 (Macintosh; Intel Mac OS X 10_15_7) AppleWebKit/537.36 (KHTML, like Gecko) Chrome/95.0.4638.69 Safari/537.36" etag="cFMVQ8Fq3wVCCp1GXXOy" version="15.7.3" type="github">
  <diagram id="PYZjEDzjpxSaf0jc2rco" name="Page-1">
    <mxGraphModel dx="1298" dy="808" grid="1" gridSize="10" guides="1" tooltips="1" connect="1" arrows="1" fold="1" page="1" pageScale="1" pageWidth="827" pageHeight="1169" math="0" shadow="0">
      <root>
        <mxCell id="0" />
        <mxCell id="1" parent="0" />
        <mxCell id="SGrBs4_IBuxolgS6I_yX-1" value="家长端Server" style="shape=umlLifeline;perimeter=lifelinePerimeter;whiteSpace=wrap;html=1;container=1;collapsible=0;recursiveResize=0;outlineConnect=0;fillColor=#d5e8d4;strokeColor=#82b366;" vertex="1" parent="1">
          <mxGeometry x="90" y="60" width="100" height="870" as="geometry" />
        </mxCell>
        <mxCell id="SGrBs4_IBuxolgS6I_yX-2" value="课程系统" style="shape=umlLifeline;perimeter=lifelinePerimeter;whiteSpace=wrap;html=1;container=1;collapsible=0;recursiveResize=0;outlineConnect=0;fillColor=#e1d5e7;strokeColor=#9673a6;" vertex="1" parent="1">
          <mxGeometry x="420" y="60" width="100" height="870" as="geometry" />
        </mxCell>
        <mxCell id="SGrBs4_IBuxolgS6I_yX-8" value="" style="html=1;points=[];perimeter=orthogonalPerimeter;fillColor=#ffe6cc;strokeColor=#d79b00;" vertex="1" parent="SGrBs4_IBuxolgS6I_yX-2">
          <mxGeometry x="45" y="160" width="10" height="40" as="geometry" />
        </mxCell>
        <mxCell id="SGrBs4_IBuxolgS6I_yX-10" value="return" style="html=1;verticalAlign=bottom;endArrow=open;dashed=1;endSize=8;rounded=0;fillColor=#ffe6cc;strokeColor=#d79b00;" edge="1" source="SGrBs4_IBuxolgS6I_yX-8" parent="SGrBs4_IBuxolgS6I_yX-2">
          <mxGeometry relative="1" as="geometry">
            <mxPoint x="-10" y="200" as="targetPoint" />
          </mxGeometry>
        </mxCell>
        <mxCell id="SGrBs4_IBuxolgS6I_yX-27" value="" style="html=1;points=[];perimeter=orthogonalPerimeter;fillColor=#f8cecc;strokeColor=#b85450;" vertex="1" parent="SGrBs4_IBuxolgS6I_yX-2">
          <mxGeometry x="45" y="700" width="10" height="60" as="geometry" />
        </mxCell>
        <mxCell id="SGrBs4_IBuxolgS6I_yX-3" value="售卖系统" style="shape=umlLifeline;perimeter=lifelinePerimeter;whiteSpace=wrap;html=1;container=1;collapsible=0;recursiveResize=0;outlineConnect=0;fillColor=#e1d5e7;strokeColor=#9673a6;" vertex="1" parent="1">
          <mxGeometry x="750" y="60" width="100" height="870" as="geometry" />
        </mxCell>
        <mxCell id="SGrBs4_IBuxolgS6I_yX-5" value="" style="html=1;points=[];perimeter=orthogonalPerimeter;fillColor=#ffe6cc;strokeColor=#d79b00;" vertex="1" parent="SGrBs4_IBuxolgS6I_yX-3">
          <mxGeometry x="45" y="90" width="10" height="40" as="geometry" />
        </mxCell>
        <mxCell id="SGrBs4_IBuxolgS6I_yX-7" value="return orderList" style="html=1;verticalAlign=bottom;endArrow=open;dashed=1;endSize=8;exitX=0;exitY=0.95;rounded=0;fillColor=#ffe6cc;strokeColor=#d79b00;" edge="1" source="SGrBs4_IBuxolgS6I_yX-5" parent="SGrBs4_IBuxolgS6I_yX-3">
          <mxGeometry relative="1" as="geometry">
            <mxPoint x="-25" y="130" as="targetPoint" />
          </mxGeometry>
        </mxCell>
        <mxCell id="SGrBs4_IBuxolgS6I_yX-12" value="" style="html=1;points=[];perimeter=orthogonalPerimeter;fillColor=#f8cecc;strokeColor=#b85450;" vertex="1" parent="SGrBs4_IBuxolgS6I_yX-3">
          <mxGeometry x="45" y="250" width="10" height="150" as="geometry" />
        </mxCell>
        <mxCell id="SGrBs4_IBuxolgS6I_yX-14" value="" style="html=1;points=[];perimeter=orthogonalPerimeter;fillColor=#f8cecc;strokeColor=#b85450;" vertex="1" parent="SGrBs4_IBuxolgS6I_yX-3">
          <mxGeometry x="50" y="300" width="10" height="40" as="geometry" />
        </mxCell>
        <mxCell id="SGrBs4_IBuxolgS6I_yX-15" value="2.2 检查是否可以退款" style="edgeStyle=orthogonalEdgeStyle;html=1;align=left;spacingLeft=2;endArrow=block;rounded=0;entryX=1;entryY=0;fillColor=#f8cecc;strokeColor=#b85450;" edge="1" target="SGrBs4_IBuxolgS6I_yX-14" parent="SGrBs4_IBuxolgS6I_yX-3">
          <mxGeometry relative="1" as="geometry">
            <mxPoint x="55" y="280" as="sourcePoint" />
            <Array as="points">
              <mxPoint x="85" y="280" />
            </Array>
          </mxGeometry>
        </mxCell>
        <mxCell id="SGrBs4_IBuxolgS6I_yX-24" value="" style="html=1;points=[];perimeter=orthogonalPerimeter;fillColor=#f8cecc;strokeColor=#b85450;" vertex="1" parent="SGrBs4_IBuxolgS6I_yX-3">
          <mxGeometry x="45" y="670" width="10" height="180" as="geometry" />
        </mxCell>
        <mxCell id="SGrBs4_IBuxolgS6I_yX-30" value="" style="html=1;points=[];perimeter=orthogonalPerimeter;fillColor=#fff2cc;strokeColor=#d6b656;" vertex="1" parent="SGrBs4_IBuxolgS6I_yX-3">
          <mxGeometry x="45" y="525" width="10" height="100" as="geometry" />
        </mxCell>
        <mxCell id="SGrBs4_IBuxolgS6I_yX-33" value="" style="html=1;points=[];perimeter=orthogonalPerimeter;fillColor=#fff2cc;strokeColor=#d6b656;" vertex="1" parent="SGrBs4_IBuxolgS6I_yX-3">
          <mxGeometry x="55" y="565" width="10" height="40" as="geometry" />
        </mxCell>
        <mxCell id="SGrBs4_IBuxolgS6I_yX-34" value="2.5 通过订单消课流水计算退费" style="edgeStyle=orthogonalEdgeStyle;html=1;align=left;spacingLeft=2;endArrow=block;rounded=0;entryX=1;entryY=0;fillColor=#fff2cc;strokeColor=#d6b656;" edge="1" target="SGrBs4_IBuxolgS6I_yX-33" parent="SGrBs4_IBuxolgS6I_yX-3">
          <mxGeometry relative="1" as="geometry">
            <mxPoint x="60" y="545" as="sourcePoint" />
            <Array as="points">
              <mxPoint x="90" y="545" />
            </Array>
          </mxGeometry>
        </mxCell>
        <mxCell id="SGrBs4_IBuxolgS6I_yX-37" value="" style="html=1;points=[];perimeter=orthogonalPerimeter;fillColor=#f8cecc;strokeColor=#b85450;" vertex="1" parent="SGrBs4_IBuxolgS6I_yX-3">
          <mxGeometry x="50" y="790" width="10" height="40" as="geometry" />
        </mxCell>
        <mxCell id="SGrBs4_IBuxolgS6I_yX-38" value="2.8 修改订单状态" style="edgeStyle=orthogonalEdgeStyle;html=1;align=left;spacingLeft=2;endArrow=block;rounded=0;entryX=1;entryY=0;fillColor=#f8cecc;strokeColor=#b85450;" edge="1" target="SGrBs4_IBuxolgS6I_yX-37" parent="SGrBs4_IBuxolgS6I_yX-3">
          <mxGeometry relative="1" as="geometry">
            <mxPoint x="55" y="770" as="sourcePoint" />
            <Array as="points">
              <mxPoint x="85" y="770" />
            </Array>
          </mxGeometry>
        </mxCell>
        <mxCell id="SGrBs4_IBuxolgS6I_yX-4" value="售卖中台" style="shape=umlLifeline;perimeter=lifelinePerimeter;whiteSpace=wrap;html=1;container=1;collapsible=0;recursiveResize=0;outlineConnect=0;fillColor=#f5f5f5;fontColor=#333333;strokeColor=#666666;" vertex="1" parent="1">
          <mxGeometry x="1030" y="60" width="100" height="870" as="geometry" />
        </mxCell>
        <mxCell id="SGrBs4_IBuxolgS6I_yX-16" value="" style="html=1;points=[];perimeter=orthogonalPerimeter;fillColor=#fff2cc;strokeColor=#d6b656;" vertex="1" parent="SGrBs4_IBuxolgS6I_yX-4">
          <mxGeometry x="45" y="340" width="10" height="40" as="geometry" />
        </mxCell>
        <mxCell id="SGrBs4_IBuxolgS6I_yX-18" value="return" style="html=1;verticalAlign=bottom;endArrow=open;dashed=1;endSize=8;exitX=0;exitY=0.95;rounded=0;fillColor=#fff2cc;strokeColor=#d6b656;" edge="1" source="SGrBs4_IBuxolgS6I_yX-16" parent="SGrBs4_IBuxolgS6I_yX-4">
          <mxGeometry relative="1" as="geometry">
            <mxPoint x="-10" y="378" as="targetPoint" />
          </mxGeometry>
        </mxCell>
        <mxCell id="SGrBs4_IBuxolgS6I_yX-21" value="" style="html=1;points=[];perimeter=orthogonalPerimeter;fillColor=#fff2cc;strokeColor=#d6b656;" vertex="1" parent="SGrBs4_IBuxolgS6I_yX-4">
          <mxGeometry x="40" y="520" width="10" height="170" as="geometry" />
        </mxCell>
        <mxCell id="SGrBs4_IBuxolgS6I_yX-6" value="1.1 查询订单信息" style="html=1;verticalAlign=bottom;endArrow=block;entryX=0;entryY=0;rounded=0;startArrow=oval;startFill=1;fillColor=#ffe6cc;strokeColor=#d79b00;" edge="1" target="SGrBs4_IBuxolgS6I_yX-5" parent="1" source="SGrBs4_IBuxolgS6I_yX-1">
          <mxGeometry relative="1" as="geometry">
            <mxPoint x="725" y="150" as="sourcePoint" />
          </mxGeometry>
        </mxCell>
        <mxCell id="SGrBs4_IBuxolgS6I_yX-9" value="1.2 获取订单列表中course的信息" style="html=1;verticalAlign=bottom;endArrow=block;entryX=0;entryY=0;rounded=0;fillColor=#ffe6cc;strokeColor=#d79b00;" edge="1" target="SGrBs4_IBuxolgS6I_yX-8" parent="1" source="SGrBs4_IBuxolgS6I_yX-1">
          <mxGeometry relative="1" as="geometry">
            <mxPoint x="395" y="220" as="sourcePoint" />
          </mxGeometry>
        </mxCell>
        <mxCell id="SGrBs4_IBuxolgS6I_yX-11" value="订单列表展示" style="text;html=1;align=center;verticalAlign=middle;resizable=0;points=[];autosize=1;strokeColor=#d79b00;fillColor=#ffe6cc;" vertex="1" parent="1">
          <mxGeometry x="40" y="140" width="90" height="20" as="geometry" />
        </mxCell>
        <mxCell id="SGrBs4_IBuxolgS6I_yX-13" value="2.1 发起退款" style="html=1;verticalAlign=bottom;startArrow=oval;endArrow=block;startSize=8;rounded=0;fillColor=#f8cecc;strokeColor=#b85450;" edge="1" target="SGrBs4_IBuxolgS6I_yX-12" parent="1" source="SGrBs4_IBuxolgS6I_yX-1">
          <mxGeometry relative="1" as="geometry">
            <mxPoint x="735" y="310" as="sourcePoint" />
            <Array as="points">
              <mxPoint x="280" y="310" />
            </Array>
          </mxGeometry>
        </mxCell>
        <mxCell id="SGrBs4_IBuxolgS6I_yX-17" value="2.3 请求售卖退款" style="html=1;verticalAlign=bottom;endArrow=block;entryX=0;entryY=0;rounded=0;fillColor=#fff2cc;strokeColor=#d6b656;" edge="1" target="SGrBs4_IBuxolgS6I_yX-16" parent="1" source="SGrBs4_IBuxolgS6I_yX-3">
          <mxGeometry relative="1" as="geometry">
            <mxPoint x="1005" y="400" as="sourcePoint" />
          </mxGeometry>
        </mxCell>
        <mxCell id="SGrBs4_IBuxolgS6I_yX-20" value="一期没有订单，售卖系统直接调用履约" style="ellipse;shape=cloud;whiteSpace=wrap;html=1;fillColor=#f8cecc;strokeColor=#b85450;" vertex="1" parent="1">
          <mxGeometry x="890" y="460" width="120" height="80" as="geometry" />
        </mxCell>
        <mxCell id="SGrBs4_IBuxolgS6I_yX-23" value="return" style="html=1;verticalAlign=bottom;endArrow=open;dashed=1;endSize=8;rounded=0;fillColor=#f8cecc;strokeColor=#b85450;" edge="1" parent="1" source="SGrBs4_IBuxolgS6I_yX-3">
          <mxGeometry relative="1" as="geometry">
            <mxPoint x="750" y="420" as="sourcePoint" />
            <mxPoint x="740" y="450" as="targetPoint" />
            <Array as="points">
              <mxPoint x="770" y="450" />
            </Array>
          </mxGeometry>
        </mxCell>
        <mxCell id="SGrBs4_IBuxolgS6I_yX-25" value="2.6 通知逆向履约" style="html=1;verticalAlign=bottom;endArrow=block;entryX=1;entryY=0;rounded=0;fillColor=#fff2cc;strokeColor=#d6b656;" edge="1" target="SGrBs4_IBuxolgS6I_yX-24" parent="1">
          <mxGeometry relative="1" as="geometry">
            <mxPoint x="1079.5" y="730" as="sourcePoint" />
          </mxGeometry>
        </mxCell>
        <mxCell id="SGrBs4_IBuxolgS6I_yX-28" value="2.7 取消课程" style="html=1;verticalAlign=bottom;endArrow=block;entryX=1;entryY=0;rounded=0;fillColor=#f8cecc;strokeColor=#b85450;" edge="1" target="SGrBs4_IBuxolgS6I_yX-27" parent="1">
          <mxGeometry relative="1" as="geometry">
            <mxPoint x="799.5" y="760" as="sourcePoint" />
          </mxGeometry>
        </mxCell>
        <mxCell id="SGrBs4_IBuxolgS6I_yX-29" value="return" style="html=1;verticalAlign=bottom;endArrow=open;dashed=1;endSize=8;exitX=1;exitY=0.95;rounded=0;fillColor=#f8cecc;strokeColor=#b85450;" edge="1" source="SGrBs4_IBuxolgS6I_yX-27" parent="1">
          <mxGeometry relative="1" as="geometry">
            <mxPoint x="799.5" y="817" as="targetPoint" />
          </mxGeometry>
        </mxCell>
        <mxCell id="SGrBs4_IBuxolgS6I_yX-31" value="2.4 查询消课信息" style="html=1;verticalAlign=bottom;endArrow=block;entryX=1;entryY=0;rounded=0;fillColor=#fff2cc;strokeColor=#d6b656;" edge="1" target="SGrBs4_IBuxolgS6I_yX-30" parent="1">
          <mxGeometry relative="1" as="geometry">
            <mxPoint x="1079.5" y="585" as="sourcePoint" />
          </mxGeometry>
        </mxCell>
        <mxCell id="SGrBs4_IBuxolgS6I_yX-32" value="return" style="html=1;verticalAlign=bottom;endArrow=open;dashed=1;endSize=8;exitX=1;exitY=0.95;rounded=0;fillColor=#fff2cc;strokeColor=#d6b656;" edge="1" source="SGrBs4_IBuxolgS6I_yX-30" parent="1" target="SGrBs4_IBuxolgS6I_yX-4">
          <mxGeometry relative="1" as="geometry">
            <mxPoint x="865" y="680" as="targetPoint" />
          </mxGeometry>
        </mxCell>
        <mxCell id="SGrBs4_IBuxolgS6I_yX-39" value="发起退款" style="text;html=1;align=center;verticalAlign=middle;resizable=0;points=[];autosize=1;strokeColor=#b85450;fillColor=#f8cecc;" vertex="1" parent="1">
          <mxGeometry x="55" y="300" width="60" height="20" as="geometry" />
        </mxCell>
      </root>
    </mxGraphModel>
  </diagram>
</mxfile>
